<svg xmlns="http://www.w3.org/2000/svg" viewBox="0 0 1024 1024">
  <defs>
    <linearGradient id="night" x1="0%" y1="0%" x2="0%" y2="100%">
      <stop offset="0%" style="stop-color:#1E3A5F;stop-opacity:0.8"/>
      <stop offset="100%" style="stop-color:#F7F2E7;stop-opacity:1"/>
    </linearGradient>
  </defs>
  <!-- Background -->
  <rect width="1024" height="1024" fill="url(#night)"/>
  <!-- Stars -->
  <circle cx="100" cy="80" r="2" fill="#F7F2E7" opacity="0.7"/>
  <circle cx="250" cy="50" r="2" fill="#F7F2E7" opacity="0.5"/>
  <circle cx="400" cy="100" r="3" fill="#F7F2E7" opacity="0.6"/>
  <circle cx="600" cy="60" r="2" fill="#F7F2E7" opacity="0.8"/>
  <circle cx="750" cy="90" r="2" fill="#F7F2E7" opacity="0.5"/>
  <circle cx="900" cy="70" r="3" fill="#F7F2E7" opacity="0.6"/>
  <circle cx="150" cy="150" r="2" fill="#F7F2E7" opacity="0.4"/>
  <circle cx="500" cy="130" r="2" fill="#F7F2E7" opacity="0.7"/>
  <!-- Palace arches -->
  <rect x="100" y="400" width="824" height="300" fill="#B5532A" opacity="0.3" rx="10"/>
  <path d="M200 400 Q300 300 400 400" fill="#B5532A" opacity="0.4"/>
  <path d="M400 400 Q500 300 600 400" fill="#B5532A" opacity="0.4"/>
  <path d="M600 400 Q700 300 800 400" fill="#B5532A" opacity="0.4"/>
  <!-- Pillars -->
  <rect x="200" y="400" width="20" height="300" fill="#D4A537" opacity="0.5"/>
  <rect x="400" y="400" width="20" height="300" fill="#D4A537" opacity="0.5"/>
  <rect x="600" y="400" width="20" height="300" fill="#D4A537" opacity="0.5"/>
  <rect x="800" y="400" width="20" height="300" fill="#D4A537" opacity="0.5"/>
  <!-- Bamboo pole -->
  <rect x="508" y="200" width="8" height="500" fill="#6D8B4E" rx="4"/>
  <!-- Pot at top -->
  <ellipse cx="512" cy="200" rx="35" ry="25" fill="#5D4037"/>
  <ellipse cx="512" cy="195" rx="25" ry="10" fill="#6D4C41"/>
  <!-- Small fire at bottom -->
  <polygon points="500,700 512,670 524,700" fill="#E07A1F" opacity="0.8"/>
  <polygon points="505,700 512,680 519,700" fill="#D4A537" opacity="0.9"/>
  <circle cx="512" cy="705" r="15" fill="#E07A1F" opacity="0.2"/>
  <!-- Birbal figure (left) -->
  <circle cx="350" cy="550" r="25" fill="#D4A537"/>
  <rect x="335" y="575" width="30" height="80" rx="5" fill="#2E5D4B"/>
  <circle cx="343" cy="545" r="3" fill="#2A1F17"/>
  <circle cx="357" cy="545" r="3" fill="#2A1F17"/>
  <!-- Akbar figure (right) -->
  <circle cx="680" cy="540" r="30" fill="#D4A537"/>
  <rect x="660" y="570" width="40" height="90" rx="5" fill="#B5532A"/>
  <!-- Crown -->
  <polygon points="660,520 680,500 700,520" fill="#D4A537" opacity="0.8"/>
  <circle cx="680" cy="505" r="5" fill="#E07A1F"/>
  <circle cx="672" cy="535" r="3" fill="#2A1F17"/>
  <circle cx="688" cy="535" r="3" fill="#2A1F17"/>
  <!-- Ground -->
  <rect x="0" y="720" width="1024" height="304" fill="#2E5D4B" opacity="0.15"/>
  <!-- Title area -->
  <rect x="0" y="880" width="1024" height="144" fill="#2A1F17" opacity="0.7"/>
  <text x="512" y="940" text-anchor="middle" font-family="Georgia, serif" font-size="48" fill="#F7F2E7" font-weight="bold">Birbal's Khichdi</text>
  <text x="512" y="985" text-anchor="middle" font-family="Georgia, serif" font-size="22" fill="#D4A537">An Akbar-Birbal Tale</text>
  <!-- Border -->
  <rect x="10" y="10" width="1004" height="1004" rx="20" fill="none" stroke="#D4A537" stroke-width="4" opacity="0.3"/>
  <rect x="20" y="20" width="984" height="984" rx="16" fill="none" stroke="#B5532A" stroke-width="1" opacity="0.3"/>
</svg>