<svg xmlns="http://www.w3.org/2000/svg" viewBox="0 0 1024 1024">
  <defs>
    <linearGradient id="bg" x1="0%" y1="0%" x2="100%" y2="100%">
      <stop offset="0%" stop-color="#F7F2E7"/>
      <stop offset="100%" stop-color="#EDE4D0"/>
    </linearGradient>
  </defs>
  <rect width="1024" height="1024" fill="url(#bg)"/>
  <g opacity="0.08" fill="#2E5D4B">
    <circle cx="80" cy="80" r="60"/><circle cx="80" cy="80" r="45" fill="#F7F2E7"/><circle cx="80" cy="80" r="30"/><circle cx="80" cy="80" r="15" fill="#F7F2E7"/>
    <circle cx="944" cy="80" r="60"/><circle cx="944" cy="80" r="45" fill="#F7F2E7"/><circle cx="944" cy="80" r="30"/><circle cx="944" cy="80" r="15" fill="#F7F2E7"/>
    <circle cx="80" cy="944" r="60"/><circle cx="80" cy="944" r="45" fill="#F7F2E7"/><circle cx="80" cy="944" r="30"/><circle cx="80" cy="944" r="15" fill="#F7F2E7"/>
    <circle cx="944" cy="944" r="60"/><circle cx="944" cy="944" r="45" fill="#F7F2E7"/><circle cx="944" cy="944" r="30"/><circle cx="944" cy="944" r="15" fill="#F7F2E7"/>
  </g>
  <rect x="36" y="36" width="952" height="952" rx="16" fill="none" stroke="#2E5D4B" stroke-width="1" opacity="0.15"/>
  <rect x="48" y="48" width="928" height="928" rx="12" fill="none" stroke="#2E5D4B" stroke-width="2" opacity="0.25"/>
  <g opacity="0.07" transform="translate(512, 280)"><ellipse cx="0" cy="0" rx="50" ry="35" fill="#2E5D4B"/><rect x="-45" y="20" width="12" height="30" rx="6" fill="#2E5D4B"/><rect x="33" y="20" width="12" height="30" rx="6" fill="#2E5D4B"/><path d="M45,-5 Q65,5 55,20" stroke="#2E5D4B" stroke-width="5" fill="none"/></g>
  <text x="512" y="430" text-anchor="middle" font-family="Georgia, serif" font-size="54" fill="#2A1F17" font-weight="bold" letter-spacing="-1">The Elephant</text>
  <text x="512" y="495" text-anchor="middle" font-family="Georgia, serif" font-size="28" fill="#2E5D4B" opacity="0.5" font-style="italic">and</text>
  <text x="512" y="565" text-anchor="middle" font-family="Georgia, serif" font-size="54" fill="#2A1F17" font-weight="bold" letter-spacing="-1">the Blind Men</text>
  <line x1="350" y1="605" x2="465" y2="605" stroke="#D4A537" stroke-width="1" opacity="0.5"/>
  <circle cx="512" cy="605" r="4" fill="#D4A537" opacity="0.4"/>
  <line x1="559" y1="605" x2="674" y2="605" stroke="#D4A537" stroke-width="1" opacity="0.5"/>
  <text x="512" y="655" text-anchor="middle" font-family="Georgia, serif" font-size="18" fill="#B5532A" letter-spacing="5" opacity="0.6">JAIN · BUDDHIST</text>
  <text x="512" y="690" text-anchor="middle" font-family="Georgia, serif" font-size="14" fill="#2A1F17" opacity="0.3">Pan-Indian</text>
  <g transform="translate(512, 880)" opacity="0.12">
    <ellipse cx="0" cy="0" rx="18" ry="8" fill="#B5532A"/>
    <polygon points="-3,-8 0,-22 3,-8" fill="#E07A1F"/>
    <circle cx="0" cy="-18" r="4" fill="#D4A537" opacity="0.6"/>
  </g>
</svg>